<svg role="img" viewBox="0 0 24 24" xmlns="http://www.w3.org/2000/svg"><title>Rust</title><path d="M23.8346 11.7033l-1.0073-.6236a13.7268 13.7268 0 00-.0283-.2936l.8654-.8049a.3483.3483 0 00-.1154-.5781l-1.1066-.414a8.4753 8.4753 0 00-.087-.2856l.6904-.9587a.3462.3462 0 00-.2257-.5446l-1.1663-.1894a9.3574 9.3574 0 00-.1407-.2622l.49-1.0734a.3437.3437 0 00-.0274-.3361.3486.3486 0 00-.3006-.1531l-1.1845.0416a6.7456 6.7456 0 00-.1885-.2268l.2783-1.1521a.3473.3473 0 00-.417-.4171l-1.1521.2782a14.7407 14.7407 0 00-.2274-.1885l.0415-1.1846a.3483.3483 0 00-.4892-.328l-1.0734.49a9.3574 9.3574 0 00-.2622-.1407l-.1894-1.1663a.3462.3462 0 00-.5446-.2257l-.9587.6904a8.4753 8.4753 0 00-.2856-.087l-.414-1.1066a.3483.3483 0 00-.5781-.1154l-.8049.8654a13.4127 13.4127 0 00-.2936-.0283L12.2967.1654a.3483.3483 0 00-.5934 0l-.6236 1.0073a13.7268 13.7268 0 00-.2936.0283L9.9812.3357a.3483.3483 0 00-.5781.1154l-.414 1.1066a9.367 9.367 0 00-.2856.087L7.745.6543a.3462.3462 0 00-.5446.2257L7.011 2.0463a14.7407 14.7407 0 00-.2622.1407l-1.0734-.49a.3483.3483 0 00-.4892.328l.0415 1.1846a8.4859 8.4859 0 00-.1885.2268L3.8875 3.3582a.3473.3473 0 00-.417.4171l.2782 1.1521a6.7456 6.7456 0 00-.1885.2268l-1.1845-.0416a.3486.3486 0 00-.3006.1531.3437.3437 0 00-.0274.3361l.49 1.0734a9.3574 9.3574 0 00-.1407.2622l-1.1663.1894a.3462.3462 0 00-.2257.5446l.6904.9587a8.4753 8.4753 0 00-.087.2856l-1.1066.414a.3483.3483 0 00-.1154.5781l.8654.8049a13.7268 13.7268 0 00-.0283.2936l-1.0073.6236a.3483.3483 0 000 .5934l1.0073.6236c.0079.0982.0177.1958.0283.2936l-.8654.8049a.3483.3483 0 00.1154.5781l1.1066.414c.0271.0961.0558.1916.087.2856l-.6904.9587a.3462.3462 0 00.2257.5446l1.1663.1894c.0453.0879.0921.1751.1407.2622l-.49 1.0734a.3483.3483 0 00.328.4892l1.1845-.0416c.0617.0762.1247.1514.1885.2268l-.2782 1.1521a.3473.3473 0 00.417.417l1.1521-.2782c.0751.0638.1507.1257.2274.1885l-.0415 1.1846a.3483.3483 0 00.4892.328l1.0734-.49c.0871.0486.1742.0958.2622.1407l.1894 1.1663a.3463.3463 0 00.5446.2257l.9587-.6904a8.4753 8.4753 0 00.2856.087l.414 1.1066a.3483.3483 0 00.5781.1154l.8049-.8654c.0978.0106.1954.0204.2936.0283l.6236 1.0073a.3483.3483 0 00.5934 0l.6236-1.0073c.0982-.0079.1958-.0177.2936-.0283l.8049.8654a.3483.3483 0 00.5781-.1154l.414-1.1066a8.4753 8.4753 0 00.2856-.087l.9587.6904a.3462.3462 0 00.5446-.2257l.1894-1.1663c.0879-.0453.1751-.0921.2622-.1407l1.0734.49a.3483.3483 0 00.4892-.328l-.0415-1.1846a6.7423 6.7423 0 00.1885-.2268l1.1521.2782a.3473.3473 0 00.417-.417l-.2782-1.1521c.0638-.0754.1257-.1507.1885-.2274l1.1845.0416a.3483.3483 0 00.328-.4892l-.49-1.0734c.0486-.0871.0958-.1742.1407-.2622l1.1663-.1894a.3463.3463 0 00.2257-.5446l-.6904-.9587c.0312-.094.0599-.1895.087-.2856l1.1066-.414a.3483.3483 0 00.1154-.5781l-.8654-.8049c.0106-.0978.0204-.1954.0283-.2936l1.0073-.6236a.3483.3483 0 000-.5934zM17.12 18.2173c-.4068-.0871-.6666-.4889-.5795-.8957.087-.4068.4889-.6666.8957-.5795.4068.0871.6666.4889.5795.8957a.7541.7541 0 01-.8957.5795zm-.3678-2.4882a.6855.6855 0 00-.8146.528l-.3777 1.7635c-1.1671.53-2.4622.8245-3.8267.8245a9.2728 9.2728 0 01-3.9077-.858l-.3777-1.7636a.6843.6843 0 00-.8146-.5267l-1.5567.3338a9.2247 9.2247 0 01-.8044-.9485h7.575c.0858 0 .1431-.0156.1431-.0935v-2.6776c0-.0779-.0573-.0935-.1431-.0935h-2.2154v-1.6985h2.3963c.2188 0 1.1697.0624 1.4729 1.2774.0948.3729.3035 1.5879.4459 1.9772.142.4368.7199 1.3097 1.3358 1.3097h3.7741a.7727.7727 0 00.1378-.0144 9.2461 9.2461 0 01-.8536 1.0017zm-9.3522 2.4882a.7541.7541 0 01-.8957-.5795c-.0871-.4068.1727-.8086.5795-.8957.4068-.0871.8086.1727.8957.5795a.754.754 0 01-.5795.8957zM4.3105 9.8035c.1727.39.0099.847-.3801 1.0197-.39.1727-.847.0099-1.0197-.3801s-.0099-.847.3801-1.0197c.39-.1727.847-.0099 1.0197.3801zm-.7202 1.7079l1.6219-.7212a.6855.6855 0 00.348-.9048l-.3338-.7551h1.3137v5.919H4.2098a9.2533 9.2533 0 01-.2987-3.5365zm6.2784-.5066V9.259h3.1273c.1616 0 1.1411.1867 1.1411.9184 0 .6076-.7508.8254-1.3675.8254zm11.1606 1.0625c0 .2293-.0086.4566-.0254.6816h-.9522c-.0951 0-.1339.0624-.1339.156v.4368c0 1.0289-.58 1.2531-1.0882 1.31-.4836.0545-1.0188-.2023-1.0852-.4986-.2862-1.6075-.762-1.9512-1.5145-2.5444.9341-.5926 1.9046-1.4677 1.9046-2.6385 0-1.2643-.8674-2.0612-1.4588-2.4532-.8293-.5474-1.748-.6566-1.9967-.6566H5.0181a9.2461 9.2461 0 015.1726-2.9197l1.1567 1.213a.6843.6843 0 00.9677.0234l1.2935-1.2369a9.2533 9.2533 0 016.334 4.5121l-.8855 1.9975a.6855.6855 0 00.348.9048l1.7095.7596c.0297.3033.0448.6087.0448.9148zM11.5418 2.9094c.3033-.2901.7842-.2796 1.0743.0237.2901.3033.2796.7842-.0237 1.0743-.3033.2901-.7842.2796-1.0743-.0237a.7595.7595 0 01.0237-1.0743zm8.6651 6.9658c.1726-.39.6296-.5528 1.0196-.3801.39.1727.5528.6296.3801 1.0196-.1727.39-.6296.5528-1.0196.3801-.39-.1727-.5528-.6296-.3801-1.0196z"/></svg>
